# xmcd
#
# Track frame offsets: 
#        150
#        27140
#        48485
#        70777
#        89225
#        110997
#        131262
#        153997
#        183207
#        206000
#        226812
#        247150
#
# Disc length: 3597 seconds
#
# Revision: 1
# Processed by: cddbd v1.5.2PL0 Copyright (c) Steve Scherf et al.
# Submitted via: ExactAudioCopy v1.0b2
#
DISCID=a60e0b0c
DTITLE=Mai Huong - Nhat Canh Sao Roi
DYEAR=1990
DGENRE=Blues
TTITLE0=Truong Ca Song Lo (Van Cao)
TTITLE1=Nho Trang Huyen Xua (Nguyen Van Quy)
TTITLE2=Nhat Canh Sao Roi (Vu Thanh)
TTITLE3=Tieng Hat Quay To (Tu Phac)
TTITLE4=Truong Chi (Van Cao)
TTITLE5=Nho Ban (Vu Thanh)
TTITLE6=Ben Do Xua (Dao Thua Liet)
TTITLE7=Tieng Chuong Chieu Thu (To Vu)
TTITLE8=Nhac Chieu (Doan Man)
TTITLE9=Trach Nguoi Di (Dan Truong)
TTITLE10=Canh Bang Luot Gio (Duong Thieu Tuoc)
TTITLE11=Ave Marie (Gounod, Pham Duy)
EXTD=
EXTT0=
EXTT1=
EXTT2=
EXTT3=
EXTT4=
EXTT5=
EXTT6=
EXTT7=
EXTT8=
EXTT9=
EXTT10=
EXTT11=
PLAYORDER=
